<svg width="41" height="40" viewBox="0 0 41 40" fill="none" xmlns="http://www.w3.org/2000/svg">
<rect x="0.922852" width="40" height="40" rx="20" fill="#ED5338"/>
<path d="M27.1041 18.5C27.6354 18.5 28.1041 18.9688 28.1041 19.5V20.5C28.1041 21.0625 27.6354 21.5 27.1041 21.5H22.6041V26C22.6041 26.5625 22.1354 27 21.6041 27H20.6041C20.0416 27 19.6041 26.5625 19.6041 26V21.5H15.1041C14.5416 21.5 14.1041 21.0625 14.1041 20.5V19.5C14.1041 18.9688 14.5416 18.5 15.1041 18.5H19.6041V14C19.6041 13.4688 20.0416 13 20.6041 13H21.6041C22.1354 13 22.6041 13.4688 22.6041 14V18.5H27.1041Z" fill="#FAFAFA"/>
</svg>
