<svg width="12" height="20" viewBox="0 0 12 20" fill="none" xmlns="http://www.w3.org/2000/svg">
<path d="M10.8205 9.19366L1.41611 0.233036C1.25919 0.0834476 1.05071 -4.38494e-07 0.833919 -4.4797e-07C0.617124 -4.57446e-07 0.408649 0.0834475 0.251732 0.233035L0.241606 0.243161C0.165272 0.315678 0.104488 0.402966 0.062953 0.499716C0.0214176 0.596465 -1.93798e-06 0.700653 -1.94258e-06 0.805942C-1.94718e-06 0.91123 0.0214176 1.01542 0.0629529 1.11217C0.104488 1.20892 0.165272 1.29621 0.241606 1.36872L9.09761 9.80622L0.241605 18.2403C0.165271 18.3129 0.104488 18.4002 0.0629522 18.4969C0.0214168 18.5937 -2.72466e-06 18.6978 -2.72926e-06 18.8031C-2.73386e-06 18.9084 0.0214168 19.0126 0.0629522 19.1094C0.104488 19.2061 0.165271 19.2934 0.241605 19.3659L0.251731 19.376C0.408649 19.5256 0.617123 19.6091 0.833918 19.6091C1.05071 19.6091 1.25919 19.5256 1.41611 19.376L10.8205 10.4154C10.9033 10.3366 10.9691 10.2418 11.0141 10.1368C11.0591 10.0318 11.0823 9.91877 11.0823 9.80454C11.0823 9.6903 11.0591 9.57725 11.0141 9.47224C10.9691 9.36724 10.9033 9.27246 10.8205 9.19366Z" fill="#ED5338"/>
</svg>
