<svg width="159" height="75" viewBox="0 0 159 75" fill="none" xmlns="http://www.w3.org/2000/svg">
<path d="M0 69.5L10.3484 74.623L9.61079 63.0995L0 69.5ZM7.4016 69.9569C9.04359 69.8118 10.6756 69.6514 12.2974 69.4762L12.0826 67.4877C10.4736 67.6615 8.85453 67.8207 7.22553 67.9647L7.4016 69.9569ZM17.1689 68.9022C18.797 68.6943 20.4145 68.4717 22.0211 68.2349L21.7296 66.2563C20.1356 66.4912 18.5309 66.712 16.9157 66.9183L17.1689 68.9022ZM26.8794 67.4708C28.5011 67.1996 30.1114 66.9141 31.7102 66.6149L31.3423 64.6491C29.7561 64.9459 28.1585 65.2291 26.5495 65.4982L26.8794 67.4708ZM36.5126 65.6684C38.1273 65.334 39.7297 64.9859 41.3195 64.6246L40.8763 62.6743C39.2989 63.0328 37.7091 63.3782 36.1071 63.71L36.5126 65.6684ZM46.0956 63.491C47.6903 63.0964 49.2718 62.6887 50.8399 62.2688L50.3225 60.3368C48.7666 60.7535 47.1974 61.158 45.6151 61.5496L46.0956 63.491ZM55.5688 60.954C57.1525 60.4974 58.7219 60.0285 60.2768 59.548L59.6863 57.6372C58.1434 58.1139 56.5862 58.5792 55.0148 59.0322L55.5688 60.954ZM64.9495 58.0556C66.5105 57.5407 68.0561 57.0145 69.5861 56.4778L68.924 54.5905C67.4058 55.1232 65.872 55.6453 64.3231 56.1562L64.9495 58.0556ZM74.2048 54.8083C75.7511 54.233 77.2805 53.6472 78.7929 53.0518L78.0603 51.1908C76.5595 51.7816 75.0418 52.3629 73.5073 52.9339L74.2048 54.8083ZM83.3417 51.2117C84.8629 50.5796 86.3658 49.9384 87.8502 49.2888L87.0484 47.4566C85.5754 48.1012 84.084 48.7375 82.5743 49.3647L83.3417 51.2117ZM92.3175 47.284C93.8201 46.5927 95.3024 45.8935 96.7642 45.1874L95.8942 43.3865C94.4437 44.0872 92.9727 44.7811 91.4816 45.4671L92.3175 47.284ZM101.167 43.0092C102.643 42.2619 104.095 41.5083 105.525 40.7496L104.588 38.9829C103.169 39.7357 101.727 40.4835 100.263 41.225L101.167 43.0092ZM109.838 38.4087C111.285 37.6051 112.707 36.7972 114.104 35.9864L113.099 34.2568C111.714 35.0613 110.303 35.8628 108.867 36.6602L109.838 38.4087ZM118.321 33.4819C119.74 32.6207 121.13 31.7578 122.49 30.8946L121.418 29.206C120.069 30.062 118.691 30.918 117.284 31.7723L118.321 33.4819ZM126.606 28.2231C127.995 27.3017 129.349 26.3819 130.669 25.4657L129.529 23.8228C128.22 24.731 126.877 25.6429 125.501 26.5566L126.606 28.2231ZM134.675 22.6205C136.031 21.6347 137.345 20.6555 138.617 19.6853L137.405 18.0949C136.145 19.0558 134.842 20.0259 133.499 21.0028L134.675 22.6205ZM142.49 16.6581C143.806 15.6024 145.07 14.5611 146.279 13.5376L144.987 12.0109C143.791 13.0228 142.541 14.0529 141.238 15.0977L142.49 16.6581ZM149.976 10.3158C151.26 9.16282 152.468 8.0393 153.599 6.95077L152.212 5.50994C151.098 6.58181 149.907 7.68965 148.64 8.82787L149.976 10.3158ZM157.068 3.47133C157.656 2.85544 158.214 2.25477 158.742 1.6706L157.258 0.329397C156.743 0.899698 156.197 1.48732 155.621 2.091L157.068 3.47133Z" fill="#562212"/>
</svg>
