<svg width="12" height="20" viewBox="0 0 12 20" fill="none" xmlns="http://www.w3.org/2000/svg">
<path d="M0.261731 10.4155L9.66617 19.3761C9.82309 19.5257 10.0316 19.6091 10.2484 19.6091C10.4652 19.6091 10.6736 19.5257 10.8305 19.3761L10.8407 19.366C10.917 19.2935 10.9778 19.2062 11.0193 19.1094C11.0609 19.0127 11.0823 18.9085 11.0823 18.8032C11.0823 18.6979 11.0609 18.5937 11.0193 18.497C10.9778 18.4002 10.917 18.3129 10.8407 18.2404L1.98467 9.80291L10.8407 1.36878C10.917 1.29626 10.9778 1.20898 11.0193 1.11223C11.0609 1.01548 11.0823 0.911289 11.0823 0.806001C11.0823 0.700712 11.0609 0.596525 11.0193 0.499774C10.9778 0.403026 10.917 0.315736 10.8407 0.243219L10.8305 0.233095C10.6736 0.0835052 10.4652 5.6763e-05 10.2484 5.67725e-05C10.0316 5.6782e-05 9.82309 0.0835052 9.66617 0.233095L0.261731 9.19372C0.179023 9.27252 0.113178 9.3673 0.0681883 9.4723C0.0231983 9.57731 -4.33563e-07 9.69036 -4.2857e-07 9.80459C-4.23576e-07 9.91883 0.0231983 10.0319 0.0681883 10.1369C0.113178 10.2419 0.179023 10.3367 0.261731 10.4155Z" fill="#ED5338"/>
</svg>
