<svg width="50" height="51" viewBox="0 0 50 51" fill="none" xmlns="http://www.w3.org/2000/svg">
<g id="ri:bookmark-3-fill">
<path id="Vector" d="M8.33333 5.03271H41.6667C42.2192 5.03271 42.7491 5.25221 43.1398 5.64291C43.5305 6.03361 43.75 6.56351 43.75 7.11605V47.2744C43.7502 47.4482 43.7069 47.6193 43.624 47.7721C43.5411 47.9249 43.4213 48.0545 43.2755 48.1492C43.1297 48.2438 42.9625 48.3004 42.7892 48.314C42.616 48.3275 42.442 48.2974 42.2833 48.2265L25 40.5119L7.71667 48.2244C7.55813 48.2952 7.3844 48.3253 7.21127 48.3119C7.03814 48.2985 6.87111 48.242 6.72537 48.1476C6.57962 48.0532 6.45979 47.9239 6.37677 47.7714C6.29375 47.6189 6.25017 47.448 6.25 47.2744V7.11605C6.25 6.56351 6.46949 6.03361 6.86019 5.64291C7.25089 5.25221 7.7808 5.03271 8.33333 5.03271ZM25 28.991L31.1229 32.2098L29.9542 25.3931L34.9062 20.564L28.0625 19.5681L25 13.366L21.9375 19.5681L15.0937 20.564L20.0458 25.3931L18.8792 32.2098L25 28.991Z" fill="#ED5338"/>
</g>
</svg>
