<svg width="40" height="40" viewBox="0 0 40 40" fill="none" xmlns="http://www.w3.org/2000/svg">
<circle cx="20" cy="20" r="20" fill="#ED5338"/>
<g clip-path="url(#clip0_10_8761)">
<path d="M24.8575 26.5C24.595 27.175 24.1525 27.625 23.65 27.625H17.305C16.795 27.625 16.36 27.175 16.0975 26.5H7.75V27.8125C7.78839 28.2935 8.01441 28.74 8.37926 29.0558C8.74411 29.3715 9.2185 29.5311 9.7 29.5H31.3C31.7815 29.5311 32.2559 29.3715 32.6207 29.0558C32.9856 28.74 33.2116 28.2935 33.25 27.8125V26.5H24.8575Z" fill="white"/>
<path d="M12.25 14.5H28.75V25H31V12.6775C31.006 12.3724 30.8911 12.0774 30.6803 11.8567C30.4695 11.6361 30.18 11.5079 29.875 11.5H11.125C10.82 11.5079 10.5304 11.6361 10.3196 11.8567C10.1089 12.0774 9.99394 12.3724 9.99998 12.6775V25H12.25V14.5Z" fill="white"/>
</g>
<defs>
<clipPath id="clip0_10_8761">
<rect width="27" height="27" fill="white" transform="translate(7 7)"/>
</clipPath>
</defs>
</svg>
