<svg width="60" height="61" viewBox="0 0 60 61" fill="none" xmlns="http://www.w3.org/2000/svg">
<path d="M9.84375 8C8.22759 8 6.67762 8.64202 5.53482 9.78482C4.39202 10.9276 3.75 12.4776 3.75 14.0938V28.9438C5.81341 26.3154 8.80163 24.5731 12.1054 24.0719C15.4091 23.5708 18.7796 24.3487 21.5296 26.2469C24.2796 28.1451 26.2021 31.0208 26.905 34.2875C27.6079 37.5543 27.0384 40.9662 25.3125 43.8275V47.375H50.1562C51.7724 47.375 53.3224 46.733 54.4652 45.5902C55.608 44.4474 56.25 42.8974 56.25 41.2812V14.0938C56.25 12.4776 55.608 10.9276 54.4652 9.78482C53.3224 8.64202 51.7724 8 50.1562 8H9.84375ZM16.875 19.25H43.125C43.6223 19.25 44.0992 19.4475 44.4508 19.7992C44.8025 20.1508 45 20.6277 45 21.125C45 21.6223 44.8025 22.0992 44.4508 22.4508C44.0992 22.8025 43.6223 23 43.125 23H16.875C16.3777 23 15.9008 22.8025 15.5492 22.4508C15.1975 22.0992 15 21.6223 15 21.125C15 20.6277 15.1975 20.1508 15.5492 19.7992C15.9008 19.4475 16.3777 19.25 16.875 19.25ZM30 34.25C30 33.7527 30.1975 33.2758 30.5492 32.9242C30.9008 32.5725 31.3777 32.375 31.875 32.375H43.125C43.6223 32.375 44.0992 32.5725 44.4508 32.9242C44.8025 33.2758 45 33.7527 45 34.25C45 34.7473 44.8025 35.2242 44.4508 35.5758C44.0992 35.9275 43.6223 36.125 43.125 36.125H31.875C31.3777 36.125 30.9008 35.9275 30.5492 35.5758C30.1975 35.2242 30 34.7473 30 34.25ZM24.375 37.0625C24.375 39.7975 23.2885 42.4206 21.3545 44.3545C19.4206 46.2885 16.7975 47.375 14.0625 47.375C11.3275 47.375 8.70443 46.2885 6.77046 44.3545C4.83649 42.4206 3.75 39.7975 3.75 37.0625C3.75 34.3275 4.83649 31.7044 6.77046 29.7705C8.70443 27.8365 11.3275 26.75 14.0625 26.75C16.7975 26.75 19.4206 27.8365 21.3545 29.7705C23.2885 31.7044 24.375 34.3275 24.375 37.0625ZM22.5 47.1162C20.1383 49.1041 17.1494 50.1921 14.0625 50.1875C10.9756 50.1921 7.98667 49.1041 5.625 47.1162V54.875C5.62508 55.2093 5.71453 55.5375 5.88408 55.8256C6.05363 56.1137 6.29712 56.3512 6.58933 56.5135C6.88154 56.6759 7.21183 56.7572 7.54602 56.749C7.8802 56.7408 8.20611 56.6434 8.49 56.4669L14.0625 52.9981L19.635 56.4669C19.919 56.6435 20.2451 56.7409 20.5795 56.749C20.9138 56.7571 21.2442 56.6757 21.5365 56.5131C21.8288 56.3505 22.0722 56.1127 22.2416 55.8243C22.411 55.536 22.5003 55.2076 22.5 54.8731V47.1162Z" fill="#ED5338"/>
</svg>
