<svg width="60" height="61" viewBox="0 0 60 61" fill="none" xmlns="http://www.w3.org/2000/svg">
<path fill-rule="evenodd" clip-rule="evenodd" d="M18.1125 5.5H41.8875C44.785 5.5 46.2325 5.5 47.4025 5.9075C48.5056 6.29847 49.5038 6.93853 50.3194 7.77796C51.1349 8.61738 51.746 9.63355 52.105 10.7475C52.5 11.9525 52.5 13.4425 52.5 16.425V51.435C52.5 53.58 50.0375 54.72 48.48 53.295C48.043 52.8912 47.4699 52.667 46.875 52.667C46.2801 52.667 45.707 52.8912 45.27 53.295L44.0625 54.4C43.297 55.1079 42.2927 55.5011 41.25 55.5011C40.2073 55.5011 39.203 55.1079 38.4375 54.4C37.672 53.6921 36.6677 53.2989 35.625 53.2989C34.5823 53.2989 33.578 53.6921 32.8125 54.4C32.047 55.1079 31.0427 55.5011 30 55.5011C28.9573 55.5011 27.953 55.1079 27.1875 54.4C26.422 53.6921 25.4177 53.2989 24.375 53.2989C23.3323 53.2989 22.328 53.6921 21.5625 54.4C20.797 55.1079 19.7927 55.5011 18.75 55.5011C17.7073 55.5011 16.703 55.1079 15.9375 54.4L14.73 53.295C14.293 52.8912 13.7199 52.667 13.125 52.667C12.5301 52.667 11.957 52.8912 11.52 53.295C9.9625 54.72 7.5 53.58 7.5 51.435V16.425C7.5 13.4425 7.5 11.95 7.895 10.75C8.645 8.4675 10.3825 6.6775 12.5975 5.9075C13.7675 5.5 15.215 5.5 18.1125 5.5ZM37.65 21.75C37.8142 21.5662 37.9405 21.3518 38.0218 21.1191C38.1031 20.8864 38.1378 20.64 38.1238 20.3939C38.1099 20.1479 38.0476 19.9069 37.9406 19.6849C37.8336 19.4629 37.6839 19.2642 37.5 19.1C37.3161 18.9358 37.1018 18.8095 36.8691 18.7282C36.6364 18.6469 36.39 18.6122 36.1439 18.6262C35.8979 18.6401 35.6569 18.7024 35.4349 18.8094C35.2129 18.9164 35.0142 19.0662 34.85 19.25L27.3225 27.685L25.1475 25.25C24.8151 24.8827 24.3508 24.6619 23.8561 24.6357C23.3614 24.6096 22.8765 24.7803 22.5072 25.1106C22.138 25.4409 21.9145 25.9038 21.8855 26.3984C21.8565 26.8929 22.0244 27.3788 22.3525 27.75L25.9225 31.75C26.0984 31.947 26.3139 32.1047 26.555 32.2126C26.796 32.3206 27.0571 32.3764 27.3213 32.3764C27.5854 32.3764 27.8465 32.3206 28.0875 32.2126C28.3286 32.1047 28.5441 31.947 28.72 31.75L37.65 21.75ZM18.75 37.375C18.2527 37.375 17.7758 37.5725 17.4242 37.9242C17.0725 38.2758 16.875 38.7527 16.875 39.25C16.875 39.7473 17.0725 40.2242 17.4242 40.5758C17.7758 40.9275 18.2527 41.125 18.75 41.125H41.25C41.7473 41.125 42.2242 40.9275 42.5758 40.5758C42.9275 40.2242 43.125 39.7473 43.125 39.25C43.125 38.7527 42.9275 38.2758 42.5758 37.9242C42.2242 37.5725 41.7473 37.375 41.25 37.375H18.75Z" fill="#ED5338"/>
</svg>
