<svg width="27" height="28" viewBox="0 0 27 28" fill="none" xmlns="http://www.w3.org/2000/svg">
<path fill-rule="evenodd" clip-rule="evenodd" d="M13.5 24.125C14.8296 24.125 16.1462 23.8631 17.3747 23.3543C18.6031 22.8455 19.7193 22.0996 20.6595 21.1595C21.5996 20.2193 22.3455 19.1031 22.8543 17.8747C23.3631 16.6462 23.625 15.3296 23.625 14C23.625 12.6704 23.3631 11.3538 22.8543 10.1253C22.3455 8.89691 21.5996 7.78074 20.6595 6.84054C19.7193 5.90035 18.6031 5.15455 17.3747 4.64572C16.1462 4.13689 14.8296 3.875 13.5 3.875C10.8147 3.875 8.23935 4.94174 6.34054 6.84054C4.44174 8.73935 3.375 11.3147 3.375 14C3.375 16.6853 4.44174 19.2606 6.34054 21.1595C8.23935 23.0583 10.8147 24.125 13.5 24.125ZM13.239 18.095L18.864 11.345L17.136 9.905L12.2985 15.7089L9.79537 13.2046L8.20463 14.7954L11.5796 18.1704L12.4504 19.0411L13.239 18.095Z" fill="#ED5338"/>
</svg>
