<svg width="60" height="61" viewBox="0 0 60 61" fill="none" xmlns="http://www.w3.org/2000/svg">
<g id="streamline:discount-percent-badge-solid">
<path id="Vector" fill-rule="evenodd" clip-rule="evenodd" d="M24.5202 7.44606C26.0676 6.18726 28.0016 5.5 29.9965 5.5C31.9913 5.5 33.9253 6.18726 35.4727 7.44606L36.0524 7.917L36.7842 7.79745C38.7541 7.48101 40.7728 7.85293 42.5004 8.85058C44.228 9.84822 45.5591 11.4107 46.2694 13.2748L46.5339 13.9667L47.2259 14.2311C49.0902 14.9413 50.6528 16.2722 51.6506 17.9996C52.6484 19.727 53.0204 21.7454 52.7039 23.715L52.5843 24.4503L53.0553 25.0263L51.8199 26.0298L53.0517 25.0263C55.6494 28.2142 55.6494 32.7858 53.0517 35.9773L52.5843 36.5533L52.7039 37.285C53.0204 39.2546 52.6484 41.273 51.6506 43.0004C50.6528 44.7278 49.0902 46.0587 47.2259 46.7689L46.5339 47.0333L46.2694 47.7289C45.5584 49.5923 44.2271 51.1539 42.4995 52.1509C40.772 53.1478 38.7536 53.5192 36.7842 53.2025L36.0488 53.0866L35.4727 53.5539C33.9253 54.8127 31.9913 55.5 29.9965 55.5C28.0016 55.5 26.0676 54.8127 24.5202 53.5539L23.9442 53.083L23.2123 53.2025C21.243 53.5192 19.2246 53.1478 17.497 52.1509C15.7694 51.1539 14.4381 49.5923 13.7272 47.7289L13.4627 47.0333L12.7671 46.7689C10.9041 46.0574 9.34304 44.726 8.34665 42.9987C7.35026 41.2714 6.97933 39.2537 7.29629 37.285L7.41585 36.5533L6.94485 35.9737C5.6868 34.4268 5 32.4938 5 30.5C5 28.5062 5.6868 26.5732 6.94485 25.0263L7.41585 24.4467L7.29629 23.715C6.97933 21.7463 7.35026 19.7286 8.34665 18.0013C9.34304 16.274 10.9041 14.9426 12.7671 14.2311L13.4627 13.9667L13.7272 13.2748C14.4375 11.4107 15.7685 9.84822 17.4962 8.85058C19.2238 7.85293 21.2425 7.48101 23.2123 7.79745L23.9442 7.917L24.5202 7.44606ZM40.6573 19.8424C40.447 19.6321 40.1973 19.4653 39.9226 19.3515C39.6478 19.2377 39.3533 19.1791 39.0559 19.1791C38.7585 19.1791 38.464 19.2377 38.1892 19.3515C37.9144 19.4653 37.6648 19.6321 37.4545 19.8424L19.3393 37.9552C18.9146 38.3799 18.676 38.9558 18.676 39.5564C18.676 40.1569 18.9146 40.7329 19.3393 41.1576C19.764 41.5822 20.34 41.8208 20.9407 41.8208C21.5413 41.8208 22.1173 41.5822 22.5421 41.1576L40.6573 23.0448C40.8676 22.8345 41.0345 22.5849 41.1483 22.3102C41.2621 22.0355 41.3207 21.741 41.3207 21.4436C41.3207 21.1462 41.2621 20.8518 41.1483 20.577C41.0345 20.3023 40.8676 20.0527 40.6573 19.8424ZM22.7522 19.6323C21.7913 19.6323 20.8698 20.014 20.1903 20.6934C19.5109 21.3727 19.1291 22.2941 19.1291 23.2549C19.1291 24.2157 19.5109 25.1371 20.1903 25.8164C20.8698 26.4958 21.7913 26.8774 22.7522 26.8774C23.7131 26.8774 24.6346 26.4958 25.3141 25.8164C25.9935 25.1371 26.3752 24.2157 26.3752 23.2549C26.3752 22.2941 25.9935 21.3727 25.3141 20.6934C24.6346 20.014 23.7131 19.6323 22.7522 19.6323ZM37.2444 34.1226C36.2835 34.1226 35.3619 34.5042 34.6825 35.1836C34.003 35.8629 33.6213 36.7843 33.6213 37.7451C33.6213 38.7059 34.003 39.6273 34.6825 40.3066C35.3619 40.986 36.2835 41.3677 37.2444 41.3677C38.2053 41.3677 39.1268 40.986 39.8062 40.3066C40.4857 39.6273 40.8674 38.7059 40.8674 37.7451C40.8674 36.7843 40.4857 35.8629 39.8062 35.1836C39.1268 34.5042 38.2053 34.1226 37.2444 34.1226Z" fill="#ED5338"/>
</g>
</svg>
