<svg width="60" height="61" viewBox="0 0 60 61" fill="none" xmlns="http://www.w3.org/2000/svg">
<g id="fluent:document-queue-20-filled">
<path id="Vector" d="M30 6.5V20C30 21.1935 30.4741 22.3381 31.318 23.182C32.1619 24.0259 33.3065 24.5 34.5 24.5H48V44C48 45.1935 47.5259 46.3381 46.682 47.182C45.8381 48.0259 44.6935 48.5 43.5 48.5H16.5C15.3065 48.5 14.1619 48.0259 13.318 47.182C12.4741 46.3381 12 45.1935 12 44V11C12 9.80653 12.4741 8.66193 13.318 7.81802C14.1619 6.97411 15.3065 6.5 16.5 6.5H30ZM19.5 15.5C19.1022 15.5 18.7206 15.658 18.4393 15.9393C18.158 16.2206 18 16.6022 18 17C18 17.3978 18.158 17.7794 18.4393 18.0607C18.7206 18.342 19.1022 18.5 19.5 18.5H25.5C25.8978 18.5 26.2794 18.342 26.5607 18.0607C26.842 17.7794 27 17.3978 27 17C27 16.6022 26.842 16.2206 26.5607 15.9393C26.2794 15.658 25.8978 15.5 25.5 15.5H19.5ZM18 23C18 23.3978 18.158 23.7794 18.4393 24.0607C18.7206 24.342 19.1022 24.5 19.5 24.5H25.5C25.8978 24.5 26.2794 24.342 26.5607 24.0607C26.842 23.7794 27 23.3978 27 23C27 22.6022 26.842 22.2206 26.5607 21.9393C26.2794 21.658 25.8978 21.5 25.5 21.5H19.5C19.1022 21.5 18.7206 21.658 18.4393 21.9393C18.158 22.2206 18 22.6022 18 23ZM19.5 27.5C19.1022 27.5 18.7206 27.658 18.4393 27.9393C18.158 28.2206 18 28.6022 18 29C18 29.3978 18.158 29.7794 18.4393 30.0607C18.7206 30.342 19.1022 30.5 19.5 30.5H25.5C25.8978 30.5 26.2794 30.342 26.5607 30.0607C26.842 29.7794 27 29.3978 27 29C27 28.6022 26.842 28.2206 26.5607 27.9393C26.2794 27.658 25.8978 27.5 25.5 27.5H19.5ZM33 7.25V20C33 20.3978 33.158 20.7794 33.4393 21.0607C33.7206 21.342 34.1022 21.5 34.5 21.5H47.25L33 7.25ZM7.5 39.5C7.89782 39.5 8.27936 39.658 8.56066 39.9393C8.84196 40.2206 9 40.6022 9 41V44C9 45.9891 9.79018 47.8968 11.1967 49.3033C12.6032 50.7098 14.5109 51.5 16.5 51.5H43.5C45.4891 51.5 47.3968 50.7098 48.8033 49.3033C50.2098 47.8968 51 45.9891 51 44V41C51 40.6022 51.158 40.2206 51.4393 39.9393C51.7206 39.658 52.1022 39.5 52.5 39.5C52.8978 39.5 53.2794 39.658 53.5607 39.9393C53.842 40.2206 54 40.6022 54 41V44C54 46.7848 52.8938 49.4555 50.9246 51.4246C48.9555 53.3938 46.2848 54.5 43.5 54.5H16.5C13.7152 54.5 11.0445 53.3938 9.07538 51.4246C7.10625 49.4555 6 46.7848 6 44V41C6 40.6022 6.15804 40.2206 6.43934 39.9393C6.72064 39.658 7.10218 39.5 7.5 39.5Z" fill="#ED5338"/>
</g>
</svg>
