<svg width="60" height="61" viewBox="0 0 60 61" fill="none" xmlns="http://www.w3.org/2000/svg">
<path d="M5 17.375C5 14.96 6.96 13 9.375 13H43.125C45.54 13 47.5 14.96 47.5 17.375V28.435C45.2157 27.8932 42.8412 27.8527 40.5398 28.3165C38.2384 28.7802 36.0648 29.7371 34.1686 31.1213C32.2724 32.5055 30.6987 34.2841 29.5557 36.3347C28.4127 38.3853 27.7276 40.6593 27.5475 43H9.375C8.21468 43 7.10188 42.5391 6.28141 41.7186C5.46094 40.8981 5 39.7853 5 38.625V17.375ZM11.0025 46.75H27.69C27.8925 48.0575 28.25 49.315 28.745 50.5H17.5C16.1831 50.5004 14.8893 50.154 13.7487 49.4958C12.6081 48.8375 11.661 47.8905 11.0025 46.75ZM51.25 29.83C52.6216 30.5458 53.8843 31.4532 55 32.525V25.5C55.0004 24.1831 54.654 22.8893 53.9958 21.7487C53.3375 20.6081 52.3905 19.661 51.25 19.0025V29.83ZM12.5 18.625C12.5 19.1223 12.3025 19.5992 11.9508 19.9508C11.5992 20.3025 11.1223 20.5 10.625 20.5H8.125V24.25H10.625C11.3637 24.25 12.0951 24.1045 12.7776 23.8218C13.46 23.5391 14.0801 23.1248 14.6025 22.6025C15.1248 22.0801 15.5391 21.46 15.8218 20.7776C16.1045 20.0951 16.25 19.3637 16.25 18.625V16.125H12.5V18.625ZM26.25 34.25C27.7418 34.25 29.1726 33.6574 30.2275 32.6025C31.2824 31.5476 31.875 30.1168 31.875 28.625C31.875 27.1332 31.2824 25.7024 30.2275 24.6475C29.1726 23.5926 27.7418 23 26.25 23C24.7582 23 23.3274 23.5926 22.2725 24.6475C21.2176 25.7024 20.625 27.1332 20.625 28.625C20.625 30.1168 21.2176 31.5476 22.2725 32.6025C23.3274 33.6574 24.7582 34.25 26.25 34.25ZM10.625 35.5C11.1223 35.5 11.5992 35.6975 11.9508 36.0492C12.3025 36.4008 12.5 36.8777 12.5 37.375V39.875H16.25V37.375C16.25 35.8832 15.6574 34.4524 14.6025 33.3975C13.5476 32.3426 12.1168 31.75 10.625 31.75H8.125V35.5H10.625ZM41.875 20.5C41.3777 20.5 40.9008 20.3025 40.5492 19.9508C40.1975 19.5992 40 19.1223 40 18.625V16.125H36.25V18.625C36.25 19.3637 36.3955 20.0951 36.6782 20.7776C36.9609 21.46 37.3752 22.0801 37.8975 22.6025C38.9524 23.6574 40.3832 24.25 41.875 24.25H44.375V20.5H41.875ZM35.695 35.44C35.8815 36.0864 35.9357 36.7637 35.8543 37.4315C35.7729 38.0993 35.5576 38.7438 35.2213 39.3264C34.8849 39.909 34.4344 40.4178 33.8968 40.8222C33.3592 41.2266 32.7455 41.5184 32.0925 41.68L30.6325 42.04C30.3982 43.538 30.4032 45.0636 30.6475 46.56L31.9975 46.885C32.6564 47.0437 33.2762 47.3348 33.8192 47.7404C34.3622 48.1461 34.8171 48.658 35.1561 49.2449C35.4952 49.8318 35.7113 50.4815 35.7915 51.1545C35.8717 51.8276 35.8142 52.5099 35.6225 53.16L35.155 54.7375C36.255 55.7025 37.505 56.485 38.865 57.0425L40.1 55.745C40.5671 55.2537 41.1292 54.8625 41.7521 54.5952C42.3751 54.3279 43.0459 54.1901 43.7237 54.1901C44.4016 54.1901 45.0724 54.3279 45.6954 54.5952C46.3183 54.8625 46.8804 55.2537 47.3475 55.745L48.5925 57.0575C49.9462 56.5073 51.1991 55.736 52.3 54.775L51.805 53.06C51.6184 52.4136 51.5643 51.7363 51.6457 51.0685C51.7271 50.4007 51.9424 49.7562 52.2787 49.1736C52.6151 48.591 53.0656 48.0822 53.6032 47.6778C54.1408 47.2734 54.7545 46.9816 55.4075 46.82L56.8675 46.46C57.1023 44.9621 57.0973 43.4363 56.8525 41.94L55.5025 41.615C54.8435 41.4563 54.2237 41.1652 53.6808 40.7596C53.1378 40.3539 52.6829 39.842 52.3439 39.2551C52.0048 38.6682 51.7887 38.0185 51.7085 37.3455C51.6283 36.6724 51.6858 35.9901 51.8775 35.34L52.345 33.765C51.2449 32.7961 49.991 32.0171 48.635 31.46L47.4025 32.755C46.9354 33.2467 46.3731 33.6382 45.75 33.9057C45.1268 34.1733 44.4557 34.3113 43.7775 34.3113C43.0993 34.3113 42.4282 34.1733 41.805 33.9057C41.1818 33.6382 40.6196 33.2467 40.1525 32.755L38.9075 31.4425C37.554 31.9921 36.3012 32.7626 35.2 33.7225L35.695 35.44ZM43.75 48C41.75 48 40.125 46.32 40.125 44.25C40.125 42.18 41.75 40.5 43.75 40.5C45.75 40.5 47.375 42.18 47.375 44.25C47.375 46.32 45.75 48 43.75 48Z" fill="#ED5338"/>
</svg>
