<svg width="40" height="40" viewBox="0 0 40 40" fill="none" xmlns="http://www.w3.org/2000/svg">
<circle cx="20" cy="20" r="20" fill="#ED5338"/>
<path d="M29.2905 20.2761H28.3838C28.3691 20.2771 28.3553 20.2834 28.3449 20.2938C28.3345 20.3042 28.3282 20.3181 28.3272 20.3328V23.2094C28.1292 23.2661 27.9305 23.2944 27.7042 23.2944C27.1092 23.2944 26.9675 23.1104 26.9675 22.3168V20.3328C26.9665 20.3181 26.9602 20.3042 26.9498 20.2938C26.9394 20.2834 26.9255 20.2771 26.9108 20.2761H26.0048C25.9901 20.2771 25.9763 20.2834 25.9659 20.2938C25.9555 20.3042 25.9492 20.3181 25.9482 20.3328V22.4161C25.9482 23.7194 26.3872 24.2158 27.5058 24.2158C28.1432 24.2158 28.8655 24.0458 29.2905 23.8898C29.3045 23.8754 29.3185 23.8614 29.3185 23.8471V20.3331C29.3468 20.3048 29.3185 20.2764 29.2905 20.2764V20.2761ZM10.0862 20.2904H9.1655C9.13717 20.2904 9.12317 20.3044 9.12317 20.3328C8.9815 20.8994 8.68417 21.8631 8.2875 22.8694L7.36717 20.3188C7.35284 20.3044 7.33884 20.2904 7.3245 20.2904H6.38984C6.3755 20.2904 6.3615 20.3044 6.34717 20.3188C6.33317 20.3328 6.33317 20.3471 6.34717 20.3611L7.73517 24.1591C7.61191 24.4187 7.4796 24.6738 7.3385 24.9241C7.2395 25.0941 7.1545 25.2641 7.0695 25.4484C7.0555 25.4628 7.0555 25.4768 7.0695 25.4911C7.08384 25.5051 7.09784 25.5194 7.11217 25.5194H8.1175C8.13184 25.5194 8.16017 25.5051 8.16017 25.4911C8.36922 25.0828 8.56291 24.6669 8.74084 24.2441C9.3355 22.8551 9.80284 21.5514 10.1572 20.3611C10.1572 20.3471 10.1572 20.3328 10.1428 20.3188C10.1145 20.2904 10.1005 20.2904 10.0862 20.2904ZM13.3862 23.2094C13.3857 23.2021 13.3826 23.1951 13.3773 23.1899C13.3721 23.1847 13.3652 23.1816 13.3578 23.1811H13.3152C13.0885 23.2661 12.6778 23.3228 12.3945 23.3228C11.7575 23.3228 11.4598 23.1528 11.4598 22.1894C11.4598 21.4098 11.5592 21.0554 12.3945 21.0554C12.6355 21.0554 12.8478 21.0838 13.1312 21.1688C13.1595 21.1688 13.1735 21.1688 13.1878 21.1404L13.5558 20.4038V20.3611C13.5554 20.3537 13.5522 20.3468 13.547 20.3416C13.5418 20.3364 13.5349 20.3332 13.5275 20.3328C13.1371 20.2141 12.7318 20.1521 12.3238 20.1484C11.0068 20.1484 10.4118 20.7721 10.4118 22.1751C10.4118 23.5921 11.0068 24.2298 12.3238 24.2298C12.6495 24.2298 13.3152 24.1591 13.6268 24.0314C13.6552 24.0171 13.6692 23.9888 13.6552 23.9604L13.3862 23.2094ZM22.0108 20.2904H21.0905C21.0622 20.2904 21.0478 20.3044 21.0478 20.3328C20.9062 20.9138 20.6088 21.8631 20.2122 22.8694L19.2918 20.3188C19.2775 20.3044 19.2635 20.2904 19.2492 20.2904H18.3145C18.3005 20.2904 18.2862 20.3044 18.2722 20.3188C18.2578 20.3328 18.2578 20.3471 18.2722 20.3611L19.6598 24.1591C19.5366 24.4187 19.4043 24.6738 19.2632 24.9241C19.1642 25.0941 19.0792 25.2641 18.9942 25.4484C18.9802 25.4628 18.9802 25.4768 18.9942 25.4911C19.0085 25.5051 19.0225 25.5194 19.0368 25.5194H20.0422C20.0565 25.5194 20.0848 25.5051 20.0848 25.4911C20.2939 25.0828 20.4876 24.6669 20.6655 24.2441C21.2462 22.8551 21.7275 21.5514 22.0818 20.3611C22.0818 20.3471 22.0818 20.3328 22.0675 20.3188C22.0392 20.2904 22.0252 20.2904 22.0108 20.2904ZM25.4098 20.2761H22.7332C22.7185 20.2771 22.7046 20.2834 22.6942 20.2938C22.6838 20.3042 22.6775 20.3181 22.6765 20.3328V24.0598C22.6765 24.0881 22.7048 24.1164 22.7332 24.1164H23.6398C23.6678 24.1164 23.6965 24.0881 23.6965 24.0598V21.1688H25.0982C25.1125 21.1688 25.1408 21.1548 25.1408 21.1404C25.2542 20.8854 25.3532 20.6161 25.4665 20.3471V20.3044C25.4382 20.2904 25.4242 20.2761 25.4098 20.2761Z" fill="white"/>
<path d="M11.1626 14.5514C9.85959 14.5514 9.34992 15.1181 9.34992 16.5494C9.34992 18.0091 9.85992 18.5761 11.1626 18.5761C12.4796 18.5761 12.9893 18.0091 12.9893 16.5494C12.9893 15.1181 12.4796 14.5514 11.1626 14.5514ZM11.1626 17.7541C10.5679 17.7541 10.3836 17.5981 10.3836 16.5778C10.3836 15.5011 10.5819 15.4018 11.1626 15.4018C11.7576 15.4018 11.9559 15.5008 11.9559 16.5778C11.9559 17.5841 11.7716 17.7541 11.1626 17.7541ZM16.6153 17.5981C16.6148 17.5907 16.6116 17.5838 16.6064 17.5786C16.6012 17.5734 16.5943 17.5702 16.5869 17.5698H16.5443C16.3176 17.6548 15.9069 17.7114 15.6239 17.7114C14.9866 17.7114 14.6889 17.5414 14.6889 16.5781C14.6889 15.7981 14.7739 15.4441 15.6239 15.4441C15.8646 15.4441 16.0773 15.4724 16.3603 15.5574C16.3886 15.5574 16.4026 15.5574 16.4169 15.5291L16.7849 14.7924V14.7498C16.7844 14.7424 16.7813 14.7355 16.7761 14.7303C16.7709 14.7251 16.7639 14.7219 16.7566 14.7214C16.3663 14.6029 15.9611 14.5408 15.5533 14.5371C14.2359 14.5371 13.6409 15.1604 13.6409 16.5638C13.6409 17.9804 14.2359 18.6184 15.5529 18.6184C15.8786 18.6184 16.5443 18.5474 16.8559 18.4201C16.8843 18.4058 16.8983 18.3774 16.8843 18.3491L16.6153 17.5981ZM6.38992 14.6648C6.37522 14.6658 6.36139 14.6721 6.35097 14.6825C6.34056 14.6929 6.33426 14.7067 6.33325 14.7214V18.4481C6.33325 18.4768 6.36159 18.5048 6.38992 18.5048H7.29659C7.32459 18.5048 7.35325 18.4768 7.35325 18.4481V15.5574H8.75492C8.76925 15.5574 8.79759 15.5434 8.79759 15.5291C8.91092 15.2741 9.00992 15.0048 9.12325 14.7358V14.6931C9.10892 14.6788 9.09492 14.6648 9.08059 14.6648H6.38992Z" fill="white"/>
<path fill-rule="evenodd" clip-rule="evenodd" d="M33.5248 23.72V23.6633C33.5248 23.635 33.5248 23.5923 33.5391 23.564C33.5815 23.0397 33.6098 22.402 33.6381 21.665V21.6083L33.6665 20.0213C33.6665 19.4687 33.6525 18.93 33.6381 18.434V18.3773L33.5391 16.4787C33.5391 16.45 33.5391 16.4077 33.5248 16.3793V16.3227C33.5248 16.266 33.5108 16.2233 33.5108 16.1667V16.11C33.4681 15.5573 33.4398 15.2173 33.4258 15.189C33.4258 15.1323 33.4115 15.0757 33.4115 15.033V14.9907C33.3994 14.895 33.3805 14.8003 33.3548 14.7073C33.3548 14.693 33.3548 14.6787 33.3408 14.6647C33.1001 13.5167 32.4628 12.2557 31.6695 11.306C31.3582 10.9377 31.0322 10.6117 30.6925 10.3567C29.413 9.41323 28.0844 8.53812 26.7125 7.735C24.6308 6.502 22.7615 5.65167 22.5208 5.53833C22.5065 5.53833 22.5065 5.52433 22.5065 5.52433C21.9541 5.28333 21.2885 5.11333 20.5665 5.04267C20.4248 5.02833 20.2831 5.01433 20.1415 5.01433C20.0138 5.01433 19.8865 5 19.7591 5H19.5608C18.5835 5.01433 17.6915 5.19833 16.9831 5.52433C16.8698 5.567 14.9865 6.431 12.8478 7.67833L12.7628 7.72067C11.3963 8.53744 10.0683 9.41705 8.78315 10.3567C8.24515 10.7533 7.76348 11.2633 7.32448 11.9153C7.22548 12.0713 7.22548 12.4397 7.65015 12.4397H8.74082C9.20815 12.4397 9.32148 12.1563 9.84548 11.7737C10.4261 11.3487 11.5731 10.4983 13.6691 9.25133C15.1845 8.35867 16.6008 7.664 17.2805 7.338C17.2948 7.338 17.3088 7.324 17.3231 7.324C17.3231 7.324 17.3371 7.324 17.3371 7.31C17.3371 7.31 17.3515 7.31 17.3515 7.29567C17.3655 7.29567 17.3798 7.28167 17.3798 7.28167C17.3938 7.28167 17.4081 7.26733 17.4221 7.26733C17.5921 7.18233 17.7055 7.13967 17.7055 7.13967C18.1871 6.92733 18.8668 6.78567 19.5888 6.77133H19.8721C20.0848 6.77133 20.2971 6.78567 20.4955 6.814C20.9345 6.87067 21.3311 6.95567 21.6568 7.09733C21.6851 7.11133 21.7275 7.12567 21.7558 7.13967C23.1391 7.78328 24.4909 8.49264 25.8065 9.26533C27.1224 10.0418 28.3986 10.8837 29.6301 11.788C29.8991 11.9863 30.1685 12.2697 30.4235 12.5813C31.0605 13.4033 31.5845 14.523 31.6695 15.3873C31.6695 15.4017 31.7121 15.7417 31.7545 16.3227C31.7545 16.365 31.7545 16.3933 31.7688 16.436V16.521C31.7688 16.5777 31.7828 16.6203 31.7828 16.677V16.7337C31.7828 16.762 31.7828 16.8043 31.7971 16.8327C31.7971 16.9037 31.8111 16.9743 31.8111 17.0453C31.8111 17.088 31.8111 17.1303 31.8255 17.173V17.2013C31.8255 17.258 31.8255 17.3003 31.8395 17.357V17.4703C31.9351 19.1603 31.9351 20.8537 31.8395 22.5437V22.657C31.8395 22.7137 31.8395 22.7563 31.8255 22.813V22.8413C31.8255 22.8837 31.8255 22.9263 31.8111 22.9687C31.8111 23.0397 31.7971 23.1107 31.7971 23.1813C31.7971 23.224 31.7971 23.2523 31.7828 23.2807V23.3373C31.7828 23.394 31.7688 23.4363 31.7688 23.493V23.5783C31.7688 23.6207 31.7688 23.6633 31.7545 23.6917C31.7121 24.2727 31.6695 24.6267 31.6695 24.6267C31.5845 25.4913 31.0605 26.6107 30.4231 27.4327C30.1685 27.7587 29.8991 28.028 29.6301 28.226C29.6161 28.226 29.2478 28.5097 28.6388 28.9347C26.4802 30.4324 24.1962 31.7411 21.8125 32.846L21.7558 32.8743C21.7275 32.8887 21.6851 32.9027 21.6568 32.917C21.3311 33.0443 20.9345 33.1437 20.4955 33.2003C20.2971 33.2287 20.0848 33.2427 19.8721 33.2427H19.5888C18.8668 33.2287 18.1871 33.101 17.7055 32.8743C17.7055 32.8743 17.6065 32.832 17.4221 32.7467C17.4081 32.7327 17.3798 32.7327 17.3655 32.7183C17.3515 32.7043 17.3371 32.7043 17.3231 32.69C17.3088 32.69 17.3088 32.676 17.2948 32.676C17.2805 32.676 17.2665 32.6617 17.2525 32.6617C17.2381 32.6477 17.2241 32.6477 17.1958 32.6333H17.1815C15.9795 32.0611 14.8028 31.4371 13.6548 30.763C11.5448 29.53 10.4118 28.6657 9.83148 28.2403C9.30715 27.8577 9.19382 27.5743 8.72648 27.5743H7.65015C7.22548 27.5743 7.22548 27.943 7.32448 28.0843C7.76348 28.7367 8.24515 29.2467 8.78315 29.6433C8.85415 29.7 10.5818 30.9753 12.7631 32.265C12.8761 32.336 12.9895 32.4067 13.1168 32.4633C15.1421 33.6253 16.8841 34.419 16.9835 34.4757C17.6771 34.7873 18.5835 34.9717 19.5468 35H19.7448C19.8725 35 19.9998 35 20.1271 34.9857C20.2688 34.9857 20.4105 34.9717 20.5521 34.9573C21.2745 34.8867 21.9541 34.7167 22.4921 34.4757C22.4921 34.4757 22.5065 34.4757 22.5065 34.4617C22.7471 34.3483 24.6165 33.4837 26.6985 32.265C27.6962 31.6742 28.674 31.0503 29.6301 30.3943L30.6782 29.6433C31.0182 29.3883 31.3438 29.0623 31.6555 28.694C32.4488 27.7443 33.0858 26.4833 33.3265 25.3353C33.3265 25.3213 33.3265 25.307 33.3408 25.293C33.3548 25.1937 33.3831 25.0943 33.3975 25.0097V24.9667C33.4115 24.91 33.4115 24.8533 33.4115 24.8107C33.4115 24.7823 33.4541 24.4423 33.4965 23.8897V23.833C33.5248 23.8187 33.5248 23.7623 33.5248 23.72Z" fill="white"/>
<path d="M17.5499 20.2764H14.7739C14.7456 20.2764 14.7316 20.2907 14.7173 20.319C14.6466 21.58 14.4059 22.9264 14.0659 24.0317C14.0659 24.0457 14.0659 24.06 14.0799 24.074C14.0943 24.0884 14.1083 24.0884 14.1226 24.0884H15.0716C15.0996 24.0884 15.1139 24.074 15.1139 24.06C15.3829 23.21 15.5956 22.1044 15.6806 21.169H16.5869V24.0457C16.5869 24.074 16.6153 24.1024 16.6436 24.1024H17.5499C17.5783 24.1024 17.6066 24.074 17.6066 24.0457V20.319C17.6066 20.3047 17.5783 20.2764 17.5499 20.2764Z" fill="white"/>
</svg>
