<svg width="40" height="40" viewBox="0 0 40 40" fill="none" xmlns="http://www.w3.org/2000/svg">
<circle cx="20" cy="20" r="20" fill="#ED5338"/>
<path d="M25.5312 9H15.4688C14.2828 9 13.3125 9.97031 13.3125 11.1562V29.8438C13.3125 31.0297 14.2828 32 15.4688 32H25.5312C26.7172 32 27.6875 31.0297 27.6875 29.8438V11.1562C27.6875 9.97031 26.7172 9 25.5312 9ZM17.625 10.0781H23.375V10.7969H17.625V10.0781ZM20.5 30.5625C20.1188 30.5625 19.7531 30.411 19.4835 30.1415C19.214 29.8719 19.0625 29.5062 19.0625 29.125C19.0625 28.7438 19.214 28.3781 19.4835 28.1085C19.7531 27.839 20.1188 27.6875 20.5 27.6875C20.8812 27.6875 21.2469 27.839 21.5165 28.1085C21.786 28.3781 21.9375 28.7438 21.9375 29.125C21.9375 29.5062 21.786 29.8719 21.5165 30.1415C21.2469 30.411 20.8812 30.5625 20.5 30.5625ZM26.25 26.25H14.75V11.875H26.25V26.25Z" fill="white"/>
</svg>
