<svg width="40" height="40" viewBox="0 0 40 40" fill="none" xmlns="http://www.w3.org/2000/svg">
<g clip-path="url(#clip0_10_8775)">
<path d="M20 40C31.0457 40 40 31.0457 40 20C40 8.9543 31.0457 0 20 0C8.9543 0 0 8.9543 0 20C0 31.0457 8.9543 40 20 40Z" fill="#ED5338"/>
<path fill-rule="evenodd" clip-rule="evenodd" d="M28.3513 9.21L29.5325 10.2825L14.6175 18.7975L7.3975 14.6413L8.0725 13.3L14.6175 17.0212L28.3513 9.21ZM25.3488 7.5L26.9338 8.305L14.6175 15.345L8.8825 12.0925L9.86 10.92L14.6175 13.635L25.35 7.5H25.3488ZM30.5788 11.3888L31.455 12.5625L14.6175 22.1838L6.48625 17.5575L6.8575 16.0825L14.6175 20.5075L30.5788 11.3888ZM33.0075 15.7137C33.5025 17.1 33.75 18.5512 33.75 20.0712C33.75 21.5912 33.5025 23.0675 33.0075 24.4963L32.67 25.4025C31.977 27.028 30.9809 28.5068 29.735 29.76C28.4743 30.9979 26.9839 31.9775 25.3475 32.6437C23.6163 33.3813 21.8288 33.75 19.9838 33.75C18.1163 33.75 16.3275 33.3813 14.6175 32.6437C13.0006 31.9603 11.5248 30.9824 10.265 29.76C9.00479 28.5187 8.00672 27.0369 7.33 25.4025C6.6175 23.715 6.24875 21.9025 6.25 20.0712V19.1663L14.6175 23.8937L32.265 13.8363L33.0075 15.7137Z" fill="white"/>
</g>
<defs>
<clipPath id="clip0_10_8775">
<rect width="40" height="40" fill="white"/>
</clipPath>
</defs>
</svg>
