<svg width="60" height="61" viewBox="0 0 60 61" fill="none" xmlns="http://www.w3.org/2000/svg">
<g clip-path="url(#clip0_10_8608)">
<path d="M18.7501 11.75C18.7501 8.76631 19.9354 5.90483 22.0451 3.79505C24.1549 1.68526 27.0164 0.5 30.0001 0.5C32.9838 0.5 35.8453 1.68526 37.955 3.79505C40.0648 5.90483 41.2501 8.76631 41.2501 11.75C41.2501 14.7337 40.0648 17.5952 37.955 19.705C35.8453 21.8147 32.9838 23 30.0001 23C27.0164 23 24.1549 21.8147 22.0451 19.705C19.9354 17.5952 18.7501 14.7337 18.7501 11.75ZM45.0038 26.75H42.9301L31.2638 50.435L35.6251 28.625L30.0001 23L24.3751 28.625L28.7363 50.435L17.0701 26.75H14.9926C7.49634 26.75 7.49634 31.79 7.49634 38V56.75H52.4963V38C52.4963 31.79 52.4963 26.75 45.0001 26.75H45.0038Z" fill="#ED5338"/>
</g>
<defs>
<clipPath id="clip0_10_8608">
<rect width="60" height="60" fill="white" transform="translate(0 0.5)"/>
</clipPath>
</defs>
</svg>
